<svg width="49" height="49" viewBox="0 0 49 49" fill="none" xmlns="http://www.w3.org/2000/svg">
<path d="M20.3984 28.5469C20.3984 30.6578 18.8672 31.325 16.9859 31.325H12.0531V25.5391H17.0844C19.1187 25.55 20.3984 26.3922 20.3984 28.5469V28.5469ZM19.5563 19.5453C19.5563 17.6094 18.0578 17.15 16.3953 17.15H12.0641V22.05H16.7344C18.3859 22.05 19.5563 21.3281 19.5563 19.5453V19.5453ZM34.0266 22.0828C32.025 22.0828 30.6906 23.3297 30.5594 25.3313H37.3625C37.1766 23.3078 36.1266 22.0828 34.0266 22.0828ZM49 5.25V43.75C49 46.6484 46.6484 49 43.75 49H5.25C2.35156 49 0 46.6484 0 43.75V5.25C0 2.35156 2.35156 0 5.25 0H43.75C46.6484 0 49 2.35156 49 5.25ZM29.7172 16.7344H38.2266V14.6672H29.7172V16.7344ZM25.0141 28.7984C25.0141 26.1625 23.7672 23.8875 21.1859 23.1547C23.0672 22.2578 24.0516 21.2187 24.0516 19.1078C24.0516 14.9297 20.9344 13.9125 17.3359 13.9125H7.4375V34.9125H17.6203C21.4375 34.8906 25.0141 33.0641 25.0141 28.7984V28.7984ZM41.5625 27.1797C41.5625 22.6844 38.9266 18.9328 34.1687 18.9328C29.5312 18.9328 26.3922 22.4109 26.3922 26.9828C26.3922 31.7188 29.3781 34.9672 34.1687 34.9672C37.8 34.9672 40.1516 33.3375 41.2891 29.8484H37.6031C37.1984 31.15 35.5688 31.8281 34.3 31.8281C31.85 31.8281 30.5703 30.3953 30.5703 27.9672H41.5297C41.5406 27.7156 41.5625 27.4422 41.5625 27.1797Z" fill="#EDBA83"/>
</svg>
