<svg width="49" height="50" viewBox="0 0 49 50" fill="none" xmlns="http://www.w3.org/2000/svg">
<path d="M24.5 19.1659C23.3462 19.1664 22.2185 19.5089 21.2594 20.1502C20.3002 20.7915 19.5528 21.7028 19.1116 22.7689C18.6704 23.835 18.5551 25.008 18.7805 26.1395C19.0058 27.2711 19.5617 28.3104 20.3777 29.1261C21.1937 29.9418 22.2332 30.4972 23.3648 30.7221C24.4965 30.9471 25.6694 30.8314 26.7353 30.3898C27.8012 29.9481 28.7122 29.2004 29.3532 28.241C29.9941 27.2816 30.3362 26.1538 30.3362 25C30.3351 23.4527 29.7198 21.9691 28.6254 20.8752C27.5311 19.7813 26.0473 19.1665 24.5 19.1659ZM38.1402 14.6816C37.8432 13.9289 37.3947 13.2453 36.8225 12.6731C36.2504 12.101 35.5667 11.6525 34.8141 11.3555C32.5172 10.4488 27.0484 10.6522 24.5 10.6522C21.9516 10.6522 16.4883 10.4411 14.1848 11.3555C13.4322 11.6525 12.7486 12.101 12.1764 12.6731C11.6042 13.2453 11.1558 13.9289 10.8587 14.6816C9.95312 16.9784 10.1555 22.4527 10.1555 24.9989C10.1555 27.5452 9.95312 33.0128 10.8631 35.3173C11.1601 36.07 11.6086 36.7536 12.1808 37.3258C12.7529 37.898 13.4365 38.3464 14.1892 38.6434C16.4861 39.5502 21.9548 39.3467 24.5044 39.3467C27.0539 39.3467 32.515 39.5578 34.8184 38.6434C35.5711 38.3464 36.2547 37.898 36.8269 37.3258C37.399 36.7536 37.8475 36.07 38.1445 35.3173C39.0578 33.0205 38.8478 27.5463 38.8478 25C38.8478 22.4537 39.0578 16.9872 38.1445 14.6827L38.1402 14.6816ZM24.5 33.9688C22.7261 33.9688 20.9921 33.4427 19.5172 32.4572C18.0423 31.4717 16.8928 30.071 16.214 28.4322C15.5351 26.7934 15.3575 24.9901 15.7036 23.2503C16.0496 21.5105 16.9038 19.9124 18.1581 18.6581C19.4124 17.4038 21.0105 16.5496 22.7503 16.2036C24.4901 15.8575 26.2934 16.0351 27.9322 16.714C29.571 17.3928 30.9717 18.5423 31.9572 20.0172C32.9427 21.4921 33.4688 23.2261 33.4688 25C33.4702 26.1782 33.2392 27.3451 32.789 28.4339C32.3388 29.5227 31.6782 30.512 30.8451 31.3451C30.012 32.1782 29.0227 32.8388 27.9339 33.289C26.8451 33.7392 25.6782 33.9702 24.5 33.9688ZM33.8384 17.7484C33.4244 17.7487 33.0195 17.6261 32.6751 17.3962C32.3307 17.1663 32.0622 16.8394 31.9036 16.4569C31.745 16.0744 31.7033 15.6534 31.784 15.2473C31.8647 14.8411 32.0639 14.468 32.3567 14.1751C32.6494 13.8822 33.0224 13.6827 33.4285 13.6019C33.8346 13.521 34.2556 13.5624 34.6382 13.7208C35.0208 13.8792 35.3478 14.1475 35.5779 14.4918C35.808 14.8361 35.9308 15.2409 35.9308 15.655C35.9319 15.93 35.8788 16.2025 35.7744 16.4569C35.67 16.7113 35.5164 16.9426 35.3224 17.1375C35.1284 17.3324 34.8979 17.487 34.644 17.5926C34.39 17.6982 34.1178 17.7527 33.8428 17.7528L33.8384 17.7484ZM43.75 0.5H5.25C3.85761 0.5 2.52226 1.05312 1.53769 2.03769C0.553123 3.02226 0 4.35761 0 5.75V44.25C0 45.6424 0.553123 46.9777 1.53769 47.9623C2.52226 48.9469 3.85761 49.5 5.25 49.5H43.75C45.1424 49.5 46.4777 48.9469 47.4623 47.9623C48.4469 46.9777 49 45.6424 49 44.25V5.75C49 4.35761 48.4469 3.02226 47.4623 2.03769C46.4777 1.05312 45.1424 0.5 43.75 0.5ZM41.8775 32.2188C41.7364 35.022 41.0966 37.5059 39.0502 39.5469C37.0037 41.5878 34.522 42.2408 31.722 42.3742C28.8334 42.5372 20.1731 42.5372 17.2845 42.3742C14.4812 42.2331 12.0061 41.5922 9.95641 39.5469C7.90672 37.5016 7.2625 35.0166 7.12906 32.2188C6.96609 29.3291 6.96609 20.6677 7.12906 17.7812C7.27016 14.978 7.90234 12.4941 9.95641 10.4531C12.0105 8.41219 14.4922 7.76688 17.2845 7.63344C20.1731 7.47047 28.8334 7.47047 31.722 7.63344C34.5253 7.77453 37.0081 8.41547 39.0502 10.4608C41.0922 12.5061 41.7441 14.9911 41.8775 17.7944C42.0405 20.6731 42.0405 29.3269 41.8775 32.2188Z" fill="#EDBA83"/>
</svg>
