<svg width="48" height="49" viewBox="0 0 48 49" fill="none" xmlns="http://www.w3.org/2000/svg">
<path d="M44.5714 0H3.41786C1.53214 0 0 1.58594 0 3.53281V45.4672C0 47.4141 1.53214 49 3.41786 49H44.5714C46.4571 49 48 47.4141 48 45.4672V3.53281C48 1.58594 46.4571 0 44.5714 0ZM14.5071 42H7.39286V18.6156H14.5179V42H14.5071ZM10.95 15.4219C8.66786 15.4219 6.825 13.5297 6.825 11.2109C6.825 8.89219 8.66786 7 10.95 7C13.2214 7 15.075 8.89219 15.075 11.2109C15.075 13.5406 13.2321 15.4219 10.95 15.4219V15.4219ZM41.175 42H34.0607V30.625C34.0607 27.9125 34.0071 24.4234 30.3643 24.4234C26.6571 24.4234 26.0893 27.3766 26.0893 30.4281V42H18.975V18.6156H25.8V21.8094H25.8964C26.85 19.9719 29.175 18.0359 32.6357 18.0359C39.8357 18.0359 41.175 22.8812 41.175 29.1812V42V42Z" fill="#EDBA83"/>
</svg>
