<svg width="49" height="49" viewBox="0 0 49 49" fill="none" xmlns="http://www.w3.org/2000/svg">
<path d="M42 0H7C3.13141 0 0 3.13141 0 7V42C0 45.8697 3.13031 49 7 49H42C45.8697 49 49 45.8697 49 42V7C49 3.13141 45.8719 0 42 0ZM42 33.25C42 35.1827 40.4327 36.75 38.5 36.75H10.5C8.56734 36.75 7 35.1827 7 33.25V21.2078L22.1484 28.7842C22.8922 29.1484 23.6906 29.3344 24.5 29.3344C25.3094 29.3344 26.1133 29.1498 26.8483 28.7824L42 21.2078V33.25ZM42 17.2922L25.2875 25.6506C24.7953 25.8967 24.2143 25.8967 23.7223 25.6506L7 17.2922V15.75C7 13.8173 8.56734 12.25 10.5 12.25H38.5C40.4327 12.25 42 13.8173 42 15.75V17.2922Z" fill="#EDBA83"/>
</svg>
