<svg width="48" height="49" viewBox="0 0 48 49" fill="none" xmlns="http://www.w3.org/2000/svg">
<path fill-rule="evenodd" clip-rule="evenodd" d="M48 42.9643V5.15571C48 2.30933 45.6964 0 42.8571 0H5.14286C2.30357 0 0 2.30933 0 5.15571V42.9643C0 45.8107 2.30357 48.12 5.14286 48.12H42.8571C45.6964 48.12 48 45.8107 48 42.9643ZM6.85742 37.596V17.1981C6.85742 15.3849 8.40097 13.7984 10.1635 13.7984H13.4697V40.9956H10.1635C8.40097 40.9956 6.85742 39.4091 6.85742 37.596ZM18.9799 6.99915H30.0003C31.7635 6.99915 33.3064 8.58636 33.3064 10.3988V40.9956H15.6737V10.3988C15.6737 8.58636 17.2166 6.99915 18.9799 6.99915ZM18.9799 13.7984H30.0003V10.3988H18.9799V13.7984ZM35.5105 13.7984H38.8166C40.5799 13.7984 42.1227 15.3849 42.1227 17.1981V37.596C42.1227 39.4084 40.5792 40.9956 38.8166 40.9956H35.5105V13.7984Z" fill="#EDBA83"/>
</svg>
